<svg xmlns="http://www.w3.org/2000/svg" viewBox="0 0 800 600" width="800" height="600" role="img"><defs><linearGradient id="g" x1="0" y1="0" x2="1" y2="1"><stop offset="0" stop-color="#1D3A7A"/><stop offset="1" stop-color="#0F1F45"/></linearGradient></defs><rect width="800" height="600" fill="url(#g)"/><circle cx="640" cy="150" r="86" fill="#F2801F" opacity=".92"/><path d="M0 470 L130 360 L250 470 Z M170 470 L320 330 L450 470 Z" fill="#fff" opacity=".06"/><rect y="478" width="800" height="122" fill="#0A1530" opacity=".55"/><line x1="0" y1="538" x2="800" y2="538" stroke="#fff" stroke-width="4" stroke-dasharray="36 28" opacity=".3"/><g transform="translate(0 0) scale(1.0)"><g transform="translate(0 0)"><rect x="290" y="190" width="220" height="250" rx="26" fill="#F2801F"/>
<rect x="290" y="190" width="220" height="40" rx="20" fill="#C9650F"/><rect x="270" y="420" width="260" height="30" rx="12" fill="#C9D4EA"/>
<rect x="318" y="268" width="164" height="92" rx="10" fill="#fff"/><path d="M400 282 q-22 30 0 52 q22 -22 0 -52z" fill="#14295A"/>
<ellipse cx="400" cy="190" rx="110" ry="14" fill="#F5A25C"/></g></g></svg>